<?xml version="1.0" encoding="UTF-8" standalone="no"?>
<!-- Created with Inkscape (http://www.inkscape.org/) -->

<svg
   xmlns:dc="http://purl.org/dc/elements/1.1/"
   xmlns:cc="http://creativecommons.org/ns#"
   xmlns:rdf="http://www.w3.org/1999/02/22-rdf-syntax-ns#"
   xmlns:svg="http://www.w3.org/2000/svg"
   xmlns="http://www.w3.org/2000/svg"
   xmlns:sodipodi="http://sodipodi.sourceforge.net/DTD/sodipodi-0.dtd"
   xmlns:inkscape="http://www.inkscape.org/namespaces/inkscape"
   version="1.1"
   id="svg3743"
   xml:space="preserve"
   width="975.20001"
   height="143.67999"
   viewBox="0 0 975.20001 143.67999"
   sodipodi:docname="logo_final.svg"
   inkscape:version="0.92.4 (5da689c313, 2019-01-14)"><metadata
     id="metadata3749"><rdf:RDF><cc:Work
         rdf:about=""><dc:format>image/svg+xml</dc:format><dc:type
           rdf:resource="http://purl.org/dc/dcmitype/StillImage" /><dc:title></dc:title></cc:Work></rdf:RDF></metadata><defs
     id="defs3747"><clipPath
       clipPathUnits="userSpaceOnUse"
       id="clipPath3759"><path
         d="M 0,2.2888e-5 H 731.4 V 107.76002 H 0 Z"
         id="path3757"
         inkscape:connector-curvature="0"
         style="clip-rule:evenodd" /></clipPath><clipPath
       clipPathUnits="userSpaceOnUse"
       id="clipPath3769"><path
         d="M 1.0899e-5,7.629e-6 H 731.40001 V 107.76001 H 1.0899e-5 Z"
         id="path3767"
         inkscape:connector-curvature="0"
         style="clip-rule:evenodd" /></clipPath><clipPath
       clipPathUnits="userSpaceOnUse"
       id="clipPath3781"><path
         d="M 1.0899e-5,7.629e-6 H 731.40001 V 107.76001 H 1.0899e-5 Z"
         id="path3779"
         inkscape:connector-curvature="0"
         style="clip-rule:evenodd" /></clipPath><clipPath
       clipPathUnits="userSpaceOnUse"
       id="clipPath3793"><path
         d="M 1.0899e-5,7.629e-6 H 731.40001 V 107.76001 H 1.0899e-5 Z"
         id="path3791"
         inkscape:connector-curvature="0"
         style="clip-rule:evenodd" /></clipPath><clipPath
       clipPathUnits="userSpaceOnUse"
       id="clipPath3805"><path
         d="M 1.0899e-5,7.629e-6 H 731.40001 V 107.76001 H 1.0899e-5 Z"
         id="path3803"
         inkscape:connector-curvature="0"
         style="clip-rule:evenodd" /></clipPath><clipPath
       clipPathUnits="userSpaceOnUse"
       id="clipPath3817"><path
         d="M 1.0899e-5,7.629e-6 H 731.40001 V 107.76001 H 1.0899e-5 Z"
         id="path3815"
         inkscape:connector-curvature="0"
         style="clip-rule:evenodd" /></clipPath><clipPath
       clipPathUnits="userSpaceOnUse"
       id="clipPath3829"><path
         d="M 1.0899e-5,7.629e-6 H 731.40001 V 107.76001 H 1.0899e-5 Z"
         id="path3827"
         inkscape:connector-curvature="0"
         style="clip-rule:evenodd" /></clipPath><clipPath
       clipPathUnits="userSpaceOnUse"
       id="clipPath3841"><path
         d="M -1.1444e-5,107.76 H 731.4 V 0 H -7.629e-6"
         id="path3839"
         inkscape:connector-curvature="0"
         style="clip-rule:evenodd" /></clipPath><clipPath
       clipPathUnits="userSpaceOnUse"
       id="clipPath3851"><path
         d="M -7.629e-6,107.76 H 731.4 V 6.1035e-5 L -3.815e-6,7.629e-6"
         id="path3849"
         inkscape:connector-curvature="0"
         style="clip-rule:evenodd" /></clipPath><clipPath
       clipPathUnits="userSpaceOnUse"
       id="clipPath3861"><path
         d="M -3.815e-6,107.76 H 731.4 V 6.1035e-5 L -3.815e-6,3.0518e-5"
         id="path3859"
         inkscape:connector-curvature="0"
         style="clip-rule:evenodd" /></clipPath><clipPath
       clipPathUnits="userSpaceOnUse"
       id="clipPath3871"><path
         d="M -7.629e-6,107.76 H 731.4 V 9.9182e-5 L -3.815e-6,3.0518e-5"
         id="path3869"
         inkscape:connector-curvature="0"
         style="clip-rule:evenodd" /></clipPath><clipPath
       clipPathUnits="userSpaceOnUse"
       id="clipPath3881"><path
         d="M -3.815e-6,107.76 H 731.4 V 4.5776e-5 L -7.629e-6,3.0518e-5"
         id="path3879"
         inkscape:connector-curvature="0"
         style="clip-rule:evenodd" /></clipPath><clipPath
       clipPathUnits="userSpaceOnUse"
       id="clipPath3891"><path
         d="M -1.1444e-5,107.76 H 731.4 V 6.1035e-5 L -1.5259e-5,7.629e-6"
         id="path3889"
         inkscape:connector-curvature="0"
         style="clip-rule:evenodd" /></clipPath><clipPath
       clipPathUnits="userSpaceOnUse"
       id="clipPath3901"><path
         d="M -3.815e-6,107.76 H 731.4 V -3.0518e-5 L -7.629e-6,0"
         id="path3899"
         inkscape:connector-curvature="0"
         style="clip-rule:evenodd" /></clipPath><clipPath
       clipPathUnits="userSpaceOnUse"
       id="clipPath3911"><path
         d="M -1.1444e-5,107.76 H 731.4 V -6.8665e-5 L -1.5259e-5,-7.629e-6"
         id="path3909"
         inkscape:connector-curvature="0"
         style="clip-rule:evenodd" /></clipPath></defs><sodipodi:namedview
     pagecolor="#ffffff"
     bordercolor="#666666"
     borderopacity="1"
     objecttolerance="10"
     gridtolerance="10"
     guidetolerance="10"
     inkscape:pageopacity="0"
     inkscape:pageshadow="2"
     inkscape:window-width="1920"
     inkscape:window-height="1017"
     id="namedview3745"
     showgrid="false"
     inkscape:zoom="1"
     inkscape:cx="91.591385"
     inkscape:cy="-142.79291"
     inkscape:window-x="-8"
     inkscape:window-y="-8"
     inkscape:window-maximized="1"
     inkscape:current-layer="g3751" /><g
     id="g3751"
     inkscape:groupmode="layer"
     inkscape:label="logo_final"
     transform="matrix(1.3333333,0,0,-1.3333333,0,143.68)"><g
       id="g3753"><g
         id="g3755"
         clip-path="url(#clipPath3759)"><path
           d="M 0,7.629e-6 H 731.4 V 107.76001 H 0 Z"
           style="fill:#ffffff;fill-opacity:1;fill-rule:evenodd;stroke:none"
           id="path3761"
           inkscape:connector-curvature="0" /></g></g><g
       id="g3763"><g
         id="g3765"
         clip-path="url(#clipPath3769)"><g
           aria-label="S"
           transform="matrix(1,0,0,-1,108.66,2.9)"
           style="font-variant:normal;font-weight:bold;font-size:138.05999756px;font-family:'Berlin Sans FB Demi';-inkscape-font-specification:BerlinSansFBDemi-Bold;writing-mode:lr-tb;fill:#ed7d31;fill-opacity:1;fill-rule:nonzero;stroke:none"
           id="text3773"><path
             d="m 52.176972,-31.00957 q 0,13.684658 -11.527471,23.4594139 -10.111816,8.6287498 -24.605419,10.9881736 -0.539297,0.067412 -0.876358,0.067412 -1.550478,0 -6.8760347,-9.4376951 -5.3255565,-9.5051075 -5.3255565,-11.5948825 0,-0.741533 1.0111816,-0.94377 9.7747556,-2.224599 12.9431246,-3.775078 7.010859,-3.505429 7.010859,-10.381464 0,-4.381787 -4.584023,-9.774756 -7.954629,-9.168047 -8.62875,-10.179228 -4.6514353,-7.01086 -4.6514353,-15.504785 0,-12.336416 11.3926463,-20.493281 9.302871,-6.741211 22.852705,-8.763574 0.741533,-0.06741 1.146006,-0.06741 1.011181,0 1.61789,1.61789 1.752715,4.921084 8.156865,17.796797 0.202237,0.404472 0.202237,0.674121 0,1.146006 -1.213418,1.146006 -0.539297,0 -1.820127,-0.202237 -1.28083,-0.202236 -1.954951,-0.202236 -4.853672,0 -8.493926,2.2246 -4.381787,2.56166 -4.381787,7.145683 0,4.112139 4.853672,10.111816 8.561337,10.785938 8.96581,11.325235 4.78626,7.415331 4.78626,14.763251 z"
             style=""
             id="path4023" /></g></g></g><g
       id="g3775"><g
         id="g3777"
         clip-path="url(#clipPath3781)"><g
           aria-label="C"
           transform="matrix(1,0,0,-1,165.8,2.9)"
           style="font-variant:normal;font-weight:bold;font-size:138.05999756px;font-family:'Berlin Sans FB Demi';-inkscape-font-specification:BerlinSansFBDemi-Bold;writing-mode:lr-tb;fill:#ffc000;fill-opacity:1;fill-rule:nonzero;stroke:none"
           id="text3785"><path
             d="m 84.939256,-15.235136 q 0,1.078593 -1.415654,2.831308 -12.403828,14.7632518 -32.964521,14.7632518 -21.032578,0 -34.110527,-14.3587788 Q 3.707666,-25.88625 3.707666,-47.053652 q 0,-20.49328 12.47124,-34.784647 13.010537,-14.965488 33.099345,-14.965488 21.841523,0 34.245351,13.415009 1.348242,1.483067 1.348242,2.629072 0,1.28083 -4.718847,9.505108 -4.651436,8.224277 -5.864854,9.235458 -0.539297,0.539297 -1.348242,0.539297 -0.33706,0 -3.370605,-2.696484 -3.640254,-3.235781 -7.145684,-5.055908 -5.325556,-2.696484 -11.055586,-2.696484 -9.909579,0 -15.841845,7.415331 -5.460381,6.876036 -5.460381,16.987852 0,10.24664 5.460381,17.190087 5.932266,7.550156 15.841845,7.550156 5.864854,0 11.122998,-2.56166 3.438018,-1.685302 7.01086,-4.718847 2.966132,-2.56166 3.303193,-2.56166 0.674121,0 1.348242,0.741533 1.078594,1.213418 5.864853,8.426513 4.921084,7.482744 4.921084,8.224278 z"
             style=""
             id="path4040" /></g></g></g><g
       id="g3787"><g
         id="g3789"
         clip-path="url(#clipPath3793)"><g
           aria-label="A"
           transform="matrix(1,0,0,-1,251.78,2.9)"
           style="font-variant:normal;font-weight:bold;font-size:138.05999756px;font-family:'Berlin Sans FB Demi';-inkscape-font-specification:BerlinSansFBDemi-Bold;writing-mode:lr-tb;fill:#70ad47;fill-opacity:1;fill-rule:nonzero;stroke:none"
           id="text3797"><path
             d="M 95.118485,-1.6853027 Q 95.118485,-0.47188476 93.433182,0 91.410819,0.53929687 80.89453,0.53929687 71.254598,0.53929687 68.490702,0 66.19869,-0.47188476 65.591981,-3.0335449 63.29997,-12.740888 62.01914,-13.41501 q -1.078594,-0.471884 -18.066445,-0.471884 -11.460059,0 -12.201592,0.606709 -1.146006,1.078593 -2.56166,7.2130953 Q 27.908613,-0.47188476 26.088486,0 23.796474,0.53929687 10.718525,0.53929687 q -10.31405235,0 -10.31405235,-1.95495117 0,-1.7527148 15.23513635,-43.0763367 16.515967,-44.694228 17.931621,-49.143427 0.808945,-2.56166 1.887539,-2.56166 1.820127,0 5.595205,0.33706 3.84249,0.337061 5.730029,0.337061 1.820127,0 5.325557,-0.202237 3.572841,-0.269648 5.325556,-0.269648 1.28083,0 2.359424,2.2246 3.303193,7.078271 19.279863,48.536717 16.044082,41.7280954 16.044082,43.5482223 z M 47.3233,-63.097733 q -1.415654,2.966133 -4.78626,12.875712 -3.640254,10.516289 -3.640254,12.336416 0,1.213418 4.044727,1.348242 2.089775,0.134825 6.876035,0.134825 4.449199,0 4.921084,-1.078594 0.134824,-0.337061 0.134824,-0.94377 0,-2.224599 -3.100957,-12.269003 -3.033545,-9.707344 -4.449199,-12.403828 z"
             style=""
             id="path4043" /></g></g></g><g
       id="g3799"><g
         id="g3801"
         clip-path="url(#clipPath3805)"><g
           aria-label="R"
           transform="matrix(1,0,0,-1,347.54,2.9)"
           style="font-variant:normal;font-weight:bold;font-size:138.05999756px;font-family:'Berlin Sans FB Demi';-inkscape-font-specification:BerlinSansFBDemi-Bold;writing-mode:lr-tb;fill:#5b9bd5;fill-opacity:1;fill-rule:nonzero;stroke:none"
           id="text3809"><path
             style=""
             d="m 48.873047,-94.984375 c -4.943554,0 -11.572559,0.08977 -19.886719,0.269531 -12.269004,0.269649 -19.1438867,0.540899 -20.626953,0.810547 -1.4381249,0.269649 -2.1347851,0.784824 -2.0898438,1.548828 l 0.066406,0.945313 c 0.8538867,10.651113 1.28125,25.481973 1.28125,44.492187 0,4.988496 -0.2458789,12.470274 -0.7402344,22.447266 -0.449414,9.976992 -0.6757812,17.4373047 -0.6757812,22.3808592 0,1.12353522 0.6517774,1.82019537 1.9550781,2.0898438 1.3033006,0.26964843 5.169082,0.40429688 11.595703,0.40429688 5.617675,0 9.752754,-0.0897656 12.404297,-0.26953126 L 34.042969,0 c 0.404472,-0.13482421 0.607422,-0.58365233 0.607422,-1.3476562 0,-3.0560156 -0.292715,-7.6184573 -0.876953,-13.6855468 -0.539297,-6.06709 -0.808594,-10.627579 -0.808594,-13.683594 0,-2.292012 0.337597,-3.439453 1.011718,-3.439453 5.977207,0 8.291602,-0.04488 6.94336,-0.134766 2.921191,0.179766 4.784805,1.145723 5.59375,2.898438 3.730137,8.763574 6.471895,15.392578 8.224609,19.8867186 1.303301,3.4604883 2.292676,6.0675977 2.966797,7.8203125 0.359531,0.76400391 0.673711,1.21283206 0.94336,1.34765628 0.134823,0.0898828 0.696835,0.20306641 1.685546,0.33789062 2.112246,0.26964843 6.112676,0.40429688 12,0.40429688 6.876036,0 11.167227,-0.13464845 12.875,-0.40429688 0.898828,-0.13482421 1.347657,-0.35923828 1.347657,-0.67382812 0,-1.16847658 -2.741758,-7.41500028 -8.22461,-18.74023388 -5.482851,-11.325233 -8.222656,-16.966816 -8.222656,-16.921876 0,-0.62918 0.515176,-1.302421 1.548828,-2.021484 5.078379,-3.685195 8.56168,-7.482675 10.449219,-11.392578 1.887539,-3.909902 2.832031,-9.145586 2.832031,-15.707031 0,-9.842168 -3.662832,-17.370782 -10.988281,-22.583985 -6.471563,-4.628964 -14.831484,-6.943359 -25.078125,-6.943359 z m -9.099609,20.021484 c 5.932265,0 10.291757,0.809844 13.078124,2.427735 3.595313,2.112246 5.392579,5.909727 5.392579,11.392578 0,7.819805 -4.921505,11.730469 -14.763672,11.730469 -3.011074,0 -5.887481,-0.20295 -8.628907,-0.607422 -1.438125,-0.224708 -2.15625,-0.449122 -2.15625,-0.673828 10e-7,-0.988712 -0.02342,-2.495215 -0.06836,-4.517579 -0.04494,-2.022362 -0.06641,-3.550331 -0.06641,-4.583984 0,-7.280507 0.134648,-11.684883 0.404297,-13.21289 0.269648,-1.303301 2.53916,-1.955079 6.808594,-1.955079 z"
             id="path4046" /></g></g></g><g
       id="g3811"><g
         id="g3813"
         clip-path="url(#clipPath3817)"><path
           transform="matrix(1,0,0,-1,435.52,2.9)"
           style="font-variant:normal;font-weight:bold;font-size:138.05999756px;font-family:'Berlin Sans FB Demi';-inkscape-font-specification:BerlinSansFBDemi-Bold;writing-mode:lr-tb;fill:#7030a0;fill-opacity:1;fill-rule:nonzero;stroke:none"
           d="m 41.458984,-97.410156 c -0.269648,0 -0.652129,0.02147 -1.146484,0.06641 -9.033222,1.348242 -16.651602,4.269531 -22.853516,8.763672 -7.5950971,5.43791 -11.3925778,12.269863 -11.3925778,20.49414 0,5.662618 1.5513868,10.830001 4.6523438,15.503907 0.449414,0.674121 3.32582,4.067656 8.628906,10.179687 3.056016,3.595313 4.583985,6.8542 4.583985,9.775391 0,4.584023 -2.337813,8.043906 -7.011719,10.380859 -2.112246,1.033653 -6.426856,2.292324 -12.9433595,3.775391 -0.6741211,0.134824 -1.0097656,0.449004 -1.0097656,0.943359 0,1.393184 1.7738477,5.258965 5.3242187,11.5957034 3.5503714,6.29179674 5.8433004,9.4375 6.8769534,9.4375 0.224707,0 0.517422,-0.023418 0.876953,-0.068359 9.662402,-1.5729492 17.864258,-5.2357814 24.605469,-10.9882812 7.68498,-6.5165038 11.527343,-14.3358788 11.527343,-23.4589848 0,-4.898613 -1.596269,-9.820117 -4.787109,-14.763672 -0.269648,-0.359531 -3.257285,-4.133593 -8.964844,-11.324218 -3.235781,-3.999785 -4.855469,-7.369903 -4.855469,-10.111328 0,-3.056016 1.461622,-5.438711 4.382813,-7.146485 2.426836,-1.483066 5.258359,-2.224609 8.494141,-2.224609 0.449414,0 1.101191,0.0683 1.955078,0.203125 0.853886,0.134824 1.460781,0.201172 1.820312,0.201172 0.808946,0 1.212891,-0.382481 1.212891,-1.146485 0,-0.179765 -0.0683,-0.404179 -0.203125,-0.673828 -4.269434,-8.583808 -6.987774,-14.516152 -8.15625,-17.796875 -0.404473,-1.078593 -0.943067,-1.617187 -1.617188,-1.617187 z"
           id="text3821" /></g></g><g
       id="g3823"><g
         id="g3825"
         clip-path="url(#clipPath3829)"><text
           transform="matrix(1,0,0,-1,527.08,2.9)"
           style="font-variant:normal;font-weight:300;font-size:138.05999756px;font-family:'Segoe UI';-inkscape-font-specification:SegoeUI-Light;writing-mode:lr-tb;fill:#7f7f7f;fill-opacity:1;fill-rule:nonzero;stroke:none"
           id="text3833"><tspan
             x="0 63.23148 131.43312"
             y="0"
             sodipodi:role="line"
             id="tspan3831">Lab</tspan></text>
</g></g><g
       id="g3835"><g
         id="g3837"
         clip-path="url(#clipPath3841)"><path
           d="M 42.783,97.834 26.459,54.042 17.549,83.79 c 5.124,7.026 17.174,12.713 25.234,14.044 z"
           style="fill:#d51419;fill-opacity:1;fill-rule:evenodd;stroke:none"
           id="path3843"
           inkscape:connector-curvature="0" /></g></g><g
       id="g3845"><g
         id="g3847"
         clip-path="url(#clipPath3851)"><path
           d="M 11.022,76.099 30.006,33.392 2.8234,48.409 c -1.2556,8.604 3.3724,21.1 8.1986,27.69 z"
           style="fill:#d51419;fill-opacity:1;fill-rule:evenodd;stroke:none"
           id="path3853"
           inkscape:connector-curvature="0" /></g></g><g
       id="g3855"><g
         id="g3857"
         clip-path="url(#clipPath3861)"><path
           d="M 5.2441,36.38 50.941,26.58 22.799,13.45 C 15.105,17.501 7.7294,28.599 5.2441,36.38 Z"
           style="fill:#d51419;fill-opacity:1;fill-rule:evenodd;stroke:none"
           id="path3863"
           inkscape:connector-curvature="0" /></g></g><g
       id="g3865"><g
         id="g3867"
         clip-path="url(#clipPath3871)"><path
           d="M 28.765,6.4735 68.465,31.135 57.318,2.1502 C 48.967,-0.27364 35.955,2.5967 28.765,6.4735 Z"
           style="fill:#d51419;fill-opacity:1;fill-rule:evenodd;stroke:none"
           id="path3873"
           inkscape:connector-curvature="0" /></g></g><g
       id="g3875"><g
         id="g3877"
         clip-path="url(#clipPath3881)"><path
           d="M 66.415,2.6872 76.801,48.254 89.568,19.946 C 85.419,12.305 74.227,5.0724 66.415,2.6872 Z"
           style="fill:#d51419;fill-opacity:1;fill-rule:evenodd;stroke:none"
           id="path3883"
           inkscape:connector-curvature="0" /></g></g><g
       id="g3885"><g
         id="g3887"
         clip-path="url(#clipPath3891)"><path
           d="M 96.341,26.152 71.88,65.975 100.81,54.682 c 2.38,-8.362 -0.56,-21.36 -4.469,-28.53 z"
           style="fill:#d51419;fill-opacity:1;fill-rule:evenodd;stroke:none"
           id="path3893"
           inkscape:connector-curvature="0" /></g></g><g
       id="g3895"><g
         id="g3897"
         clip-path="url(#clipPath3901)"><path
           d="M 101.54,63.642 55.973,74.031 84.282,86.797 c 7.641,-4.15 14.873,-15.342 17.258,-23.155 z"
           style="fill:#d51419;fill-opacity:1;fill-rule:evenodd;stroke:none"
           id="path3903"
           inkscape:connector-curvature="0" /></g></g><g
       id="g3905"><g
         id="g3907"
         clip-path="url(#clipPath3911)"><path
           d="M 79.267,92.03 37.596,70.87 51.191,98.79 c 8.528,1.7 21.246,-2.28 28.076,-6.76 z"
           style="fill:#d51419;fill-opacity:1;fill-rule:evenodd;stroke:none"
           id="path3913"
           inkscape:connector-curvature="0" /></g></g></g></svg>